{
	"asset":{
		"generator":"Khronos glTF Blender I/O v3.5.30",
		"version":"2.0"
	},
	"scene":0,
	"scenes":[
		{
			"name":"Scene",
			"nodes":[
				0
			]
		}
	],
	"nodes":[
		{
			"mesh":0,
			"name":"Ship"
		}
	],
	"meshes":[
		{
			"name":"Cube.001",
			"primitives":[
				{
					"attributes":{
						"POSITION":0,
						"TEXCOORD_0":1,
						"NORMAL":2
					},
					"indices":3
				}
			]
		}
	],
	"accessors":[
		{
			"bufferView":0,
			"componentType":5126,
			"count":114,
			"max":[
				7.282849311828613,
				1.4919084310531616,
				3.201688528060913
			],
			"min":[
				-4.945634365081787,
				-1.0764131546020508,
				-3.201688528060913
			],
			"type":"VEC3"
		},
		{
			"bufferView":1,
			"componentType":5126,
			"count":114,
			"type":"VEC2"
		},
		{
			"bufferView":2,
			"componentType":5126,
			"count":114,
			"type":"VEC3"
		},
		{
			"bufferView":3,
			"componentType":5123,
			"count":222,
			"type":"SCALAR"
		}
	],
	"bufferViews":[
		{
			"buffer":0,
			"byteLength":1368,
			"byteOffset":0,
			"target":34962
		},
		{
			"buffer":0,
			"byteLength":912,
			"byteOffset":1368,
			"target":34962
		},
		{
			"buffer":0,
			"byteLength":1368,
			"byteOffset":2280,
			"target":34962
		},
		{
			"buffer":0,
			"byteLength":444,
			"byteOffset":3648,
			"target":34963
		}
	],
	"buffers":[
		{
			"byteLength":4092,
			"uri":"data:application/octet-stream;base64,"
		}
	]
}
