{
    "asset" : {
        "generator" : "Khronos glTF Blender I/O v1.6.16",
        "version" : "2.0"
    },
    "scene" : 0,
    "scenes" : [
        {
            "name" : "Scene",
            "nodes" : [
                0
            ]
        }
    ],
    "nodes" : [
        {
            "mesh" : 0,
            "name" : "fighter"
        }
    ],
    "materials" : [
        {
            "doubleSided" : true,
            "name" : "fighter material",
            "pbrMetallicRoughness" : {
                "baseColorFactor" : [
                    0.800000011920929,
                    0.800000011920929,
                    0.800000011920929,
                    1
                ],
                "roughnessFactor" : 0.5527864098548889
            }
        }
    ],
    "meshes" : [
        {
            "name" : "Cube.011",
            "primitives" : [
                {
                    "attributes" : {
                        "POSITION" : 0,
                        "NORMAL" : 1,
                        "TEXCOORD_0" : 2
                    },
                    "indices" : 3,
                    "material" : 0
                }
            ]
        }
    ],
    "accessors" : [
        {
            "bufferView" : 0,
            "componentType" : 5126,
            "count" : 5110,
            "max" : [
                6.006588459014893,
                2.2387964725494385,
                3.803908348083496
            ],
            "min" : [
                -5.6401777267456055,
                -1.0924458503723145,
                -3.803908348083496
            ],
            "type" : "VEC3"
        },
        {
            "bufferView" : 1,
            "componentType" : 5126,
            "count" : 5110,
            "type" : "VEC3"
        },
        {
            "bufferView" : 2,
            "componentType" : 5126,
            "count" : 5110,
            "type" : "VEC2"
        },
        {
            "bufferView" : 3,
            "componentType" : 5123,
            "count" : 8526,
            "type" : "SCALAR"
        }
    ],
    "bufferViews" : [
        {
            "buffer" : 0,
            "byteLength" : 61320,
            "byteOffset" : 0
        },
        {
            "buffer" : 0,
            "byteLength" : 61320,
            "byteOffset" : 61320
        },
        {
            "buffer" : 0,
            "byteLength" : 40880,
            "byteOffset" : 122640
        },
        {
            "buffer" : 0,
            "byteLength" : 17052,
            "byteOffset" : 163520
        }
    ],
    "buffers" : [
        {
            "byteLength" : 180572,
            "uri" : "data:application/octet-stream;base64,"
        }
    ]
}
